<?xml version="1.0" encoding="UTF-8"?>
<svg width="20px" height="20px" viewBox="0 0 20 20" version="1.1" xmlns="http://www.w3.org/2000/svg" xmlns:xlink="http://www.w3.org/1999/xlink">
    <!-- Generator: Sketch 59.1 (86144) - https://sketch.com -->
    <title>Group 3</title>
    <desc>Created with Sketch.</desc>
    <g id="Page-1" stroke="none" stroke-width="1" fill="none" fill-rule="evenodd">
        <g id="Service-Silo" transform="translate(-1179.000000, -633.000000)">
            <g id="Breadstrip" transform="translate(115.000000, 632.000000)">
                <g id="Shares" transform="translate(994.000000, 0.000000)">
                    <g id="Group-3" transform="translate(70.000000, 1.000000)">
                        <rect id="Rectangle-Copy-5" fill="#3B5998" x="0" y="0" width="20" height="20"></rect>
                        <path d="M13.71875,11 L11.375,11 L11.375,18 L8.25,18 L8.25,11 L5.71875,11 L5.71875,8.09375 L8.25,8.09375 L8.25,5.90625 C8.25,5.0729125 8.40624844,4.36458625 8.71875,3.78125 C9.03125156,3.19791375 9.47395547,2.75520984 10.046875,2.453125 C10.6197945,2.15104016 11.2812462,2 12.03125,2 C12.364585,2 12.71875,2.01562484 13.09375,2.046875 C13.4687519,2.07812516 13.7604156,2.11458312 13.96875,2.15625 L14.28125,2.1875 L14.28125,4.65625 L13.03125,4.65625 C12.4479137,4.65625 12.026043,4.80729016 11.765625,5.109375 C11.505207,5.41145984 11.375,5.78124781 11.375,6.21875 L11.375,8.09375 L14.15625,8.09375 L13.71875,11 Z" id="" fill="#FFFFFF" fill-rule="nonzero"></path>
                    </g>
                </g>
            </g>
        </g>
    </g>
</svg>